<svg width="26" height="26" viewBox="0 0 26 26"
                                                                    fill="none" xmlns="http://www.w3.org/2000/svg">
                                                                    <rect width="26" height="26" fill="#1A1930" />
                                                                    <path
                                                                        d="M13 5.74072C10.4488 5.74072 8.32089 7.79585 8.32089 10.4198C8.32089 11.4181 8.62087 12.3083 9.19657 13.1424L12.6419 18.5186C12.8091 18.7799 13.1913 18.7794 13.3581 18.5186L16.8184 13.1241C17.3817 12.3278 17.6791 11.3927 17.6791 10.4198C17.6791 7.83977 15.5801 5.74072 13 5.74072ZM13 12.5467C11.8273 12.5467 10.8731 11.5925 10.8731 10.4198C10.8731 9.24714 11.8273 8.29297 13 8.29297C14.1727 8.29297 15.1269 9.24714 15.1269 10.4198C15.1269 11.5925 14.1727 12.5467 13 12.5467Z"
                                                                        fill="#E3EEFF" />
                                                                    <path
                                                                        d="M16.3254 15.5154L14.1835 18.8641C13.629 19.7285 12.3679 19.7257 11.8161 18.8649L9.67068 15.5163C7.78304 15.9527 6.61938 16.7522 6.61938 17.7076C6.61938 19.3655 9.9069 20.2599 13 20.2599C16.0931 20.2599 19.3806 19.3655 19.3806 17.7076C19.3806 16.7515 18.2153 15.9516 16.3254 15.5154Z"
                                                                        fill="url(#paint0_linear_431_135)" />
                                                                    <defs>
                                                                        <linearGradient id="paint0_linear_431_135"
                                                                            x1="6.61938" y1="20.2599" x2="19.5644"
                                                                            y2="16.0853" gradientUnits="userSpaceOnUse">
                                                                            <stop stop-color="#3D71CA" />
                                                                            <stop offset="1" stop-color="#80B1FF" />
                                                                        </linearGradient>
                                                                    </defs>
                                                                </svg>