<svg width="470" height="280" viewBox="0 0 470 280" fill="none" xmlns="http://www.w3.org/2000/svg">
<g clip-path="url(#clip0_431_94)">
<rect width="470" height="440" fill="white"/>
<path opacity="0.7" d="M565.708 274.997L399.298 274.997L228.782 19.8178L228.782 19.3497" stroke="url(#paint0_linear_431_94)" stroke-width="1.46667"/>
<path d="M323.384 530.678L-18.2959 19.347" stroke="url(#paint1_linear_431_94)" stroke-width="1.46667"/>
<g opacity="0.2">
<path d="M240.915 530.676L70.0749 275.028L-96.0113 275.028L-96.0113 275.497L74.5043 530.676L240.915 530.676Z" fill="url(#paint2_linear_431_94)"/>
<path d="M565.708 274.996L394.868 19.3487L228.782 19.3487L228.782 19.8168L399.298 274.996L565.708 274.996Z" fill="url(#paint3_linear_431_94)"/>
<path d="M489.794 530.679H323.383L-18.296 19.3479H148.114L489.794 530.679Z" fill="url(#paint4_linear_431_94)"/>
</g>
<rect width="546.89" height="226.112" transform="matrix(1 0 0 -1 -38.5967 440.012)" fill="url(#paint5_linear_431_94)"/>
<rect x="-38.5967" y="19.348" width="546.89" height="160.159" fill="url(#paint6_linear_431_94)"/>
</g>
<defs>
<linearGradient id="paint0_linear_431_94" x1="565.708" y1="19.3497" x2="199.838" y2="222.997" gradientUnits="userSpaceOnUse">
<stop stop-color="#E3EEFF"/>
<stop offset="1" stop-color="#F8FAFF"/>
</linearGradient>
<linearGradient id="paint1_linear_431_94" x1="323.384" y1="19.347" x2="-126.749" y2="146.38" gradientUnits="userSpaceOnUse">
<stop stop-color="#E3EEFF"/>
<stop offset="1" stop-color="#F8FAFF"/>
</linearGradient>
<linearGradient id="paint2_linear_431_94" x1="-96.0111" y1="275.028" x2="135.911" y2="413.026" gradientUnits="userSpaceOnUse">
<stop stop-color="white"/>
<stop offset="1" stop-color="#A4C7FF"/>
</linearGradient>
<linearGradient id="paint3_linear_431_94" x1="510.899" y1="191.759" x2="397.245" y2="274.996" gradientUnits="userSpaceOnUse">
<stop stop-color="white"/>
<stop offset="1" stop-color="#A4C7FF"/>
</linearGradient>
<linearGradient id="paint4_linear_431_94" x1="261.974" y1="187.695" x2="140.677" y2="263" gradientUnits="userSpaceOnUse">
<stop stop-color="white"/>
<stop offset="1" stop-color="#A4C7FF"/>
</linearGradient>
<linearGradient id="paint5_linear_431_94" x1="273.445" y1="0" x2="273.445" y2="226.112" gradientUnits="userSpaceOnUse">
<stop stop-color="white"/>
<stop offset="1" stop-color="white" stop-opacity="0"/>
</linearGradient>
<linearGradient id="paint6_linear_431_94" x1="234.848" y1="19.348" x2="234.848" y2="179.507" gradientUnits="userSpaceOnUse">
<stop stop-color="white"/>
<stop offset="1" stop-color="white" stop-opacity="0"/>
</linearGradient>
<clipPath id="clip0_431_94">
<rect width="470" height="440" fill="white"/>
</clipPath>
</defs>
</svg>
