<svg xmlns="http://www.w3.org/2000/svg" width="686" height="66" fill="none"
                                viewBox="0 0 686 66">
                                <g clip-path="url(#a)">
                                    <path fill="#1A1930" d="M.3 0h685v66H.3z" />
                                    <g clip-path="url(#b)">
                                        <path fill="#1A1930" d="M200.373-137.482H685.3v340.964H200.373z" />
                                        <path stroke="url(#c)" stroke-width="1.515"
                                            d="M784.689 32.985h-171.94L436.568-230.673v-.484" opacity=".7" />
                                        <path stroke="url(#d)" stroke-width="1.515"
                                            d="m534.313 297.161-353.032-528.32" />
                                        <g opacity=".2">
                                            <path fill="url(#e)"
                                                d="M449.104 297.157 272.588 33.017H100.984v.483l176.181 263.657h171.939Z" />
                                            <path fill="url(#f)"
                                                d="M784.689 32.984 608.173-231.158H436.568v.484L612.749 32.984h171.94Z" />
                                            <path fill="url(#g)"
                                                d="M706.252 297.16H534.313L181.281-231.16H353.22l353.032 528.32Z" />
                                        </g>
                                        <path fill="url(#h)" d="M0 0h565.061v200.91H0z"
                                            transform="matrix(1 0 0 -1 160.306 143.882)" />
                                    </g>
                                    <path fill="url(#i)" d="M200.373-34h163.021V66H200.373z" />
                                    <path fill="#E3EEFF"
                                        d="m38.114 43.55-8.019-11.998H22.3v.022l8.003 11.977h7.81Zm15.244-12-8.018-12h-7.796v.023l8.003 11.977h7.81Zm-27.411-12h7.81l16.038 24h-7.81l-16.038-24Zm47.558 8.229c-.069-.698-.366-1.24-.89-1.627-.525-.386-1.238-.58-2.137-.58-.612 0-1.128.087-1.549.26-.42.167-.744.4-.969.7-.219.3-.328.64-.328 1.022-.012.317.054.594.199.83.15.236.354.441.614.614.26.168.56.315.9.441.34.122.703.225 1.09.312l1.591.38c.773.174 1.482.404 2.128.693a6.464 6.464 0 0 1 1.679 1.064c.472.42.839.917 1.098 1.488.266.57.401 1.225.407 1.963-.006 1.085-.283 2.025-.83 2.82-.543.79-1.327 1.405-2.354 1.843-1.02.433-2.252.649-3.694.649-1.43 0-2.676-.22-3.737-.658-1.055-.438-1.88-1.087-2.474-1.946-.588-.865-.897-1.935-.925-3.21h3.624c.04.595.21 1.09.51 1.489.306.392.713.689 1.22.89.514.197 1.093.295 1.74.295.634 0 1.184-.093 1.651-.277.473-.185.84-.441 1.1-.77a1.78 1.78 0 0 0 .388-1.133c0-.398-.118-.733-.354-1.004-.23-.27-.571-.502-1.021-.692-.444-.19-.99-.363-1.635-.519l-1.93-.484c-1.493-.364-2.672-.932-3.537-1.705-.865-.772-1.295-1.813-1.29-3.122-.005-1.073.28-2.01.857-2.812.582-.802 1.381-1.427 2.396-1.877 1.015-.45 2.169-.675 3.46-.675 1.316 0 2.463.225 3.444.675.986.45 1.753 1.075 2.3 1.877.549.802.831 1.73.849 2.786h-3.59ZM85.792 40.66c-1.361 0-2.532-.289-3.512-.865a5.847 5.847 0 0 1-2.25-2.423c-.519-1.032-.778-2.22-.778-3.564 0-1.36.262-2.555.787-3.581a5.848 5.848 0 0 1 2.258-2.414c.975-.582 2.134-.874 3.478-.874 1.159 0 2.174.21 3.045.632.87.42 1.56 1.012 2.067 1.773.508.762.787 1.655.84 2.682h-3.478c-.098-.663-.358-1.197-.779-1.6-.415-.41-.96-.614-1.635-.614-.57 0-1.07.155-1.496.467-.421.305-.75.752-.987 1.34-.236.589-.354 1.301-.354 2.137 0 .848.115 1.569.346 2.163.236.594.568 1.047.995 1.358.426.312.925.467 1.496.467a2.43 2.43 0 0 0 1.134-.26c.34-.172.62-.423.839-.752.224-.334.372-.735.44-1.202h3.478c-.057 1.015-.334 1.909-.83 2.681-.49.767-1.168 1.367-2.033 1.8-.865.432-1.889.649-3.071.649Zm11.979-7.942V40.4h-3.685V22.683h3.581v6.774h.156c.3-.785.785-1.399 1.454-1.843.668-.45 1.508-.675 2.517-.675.923 0 1.727.202 2.413.606.693.398 1.229.972 1.61 1.721.386.744.576 1.636.57 2.674v8.46h-3.685v-7.803c.006-.819-.202-1.456-.623-1.912-.415-.455-.997-.683-1.747-.683-.502 0-.946.107-1.332.32-.381.213-.68.525-.9.934-.213.404-.323.891-.329 1.462Zm14.138 7.682-3.616-13.288h3.728l2.059 8.928h.121l2.146-8.928h3.659l2.18 8.876h.113l2.024-8.876h3.72L124.435 40.4h-3.901l-2.284-8.357h-.164l-2.284 8.357h-3.893Zm23.822.26c-1.367 0-2.543-.277-3.529-.83a5.689 5.689 0 0 1-2.267-2.371c-.53-1.027-.796-2.24-.796-3.642 0-1.367.266-2.567.796-3.599a5.887 5.887 0 0 1 2.241-2.413c.969-.577 2.105-.866 3.408-.866.877 0 1.693.142 2.448.424a5.424 5.424 0 0 1 1.99 1.255c.571.56 1.015 1.263 1.332 2.11.318.842.476 1.829.476 2.96v1.011h-11.22v-2.284h7.751c0-.53-.115-1-.346-1.41a2.483 2.483 0 0 0-.96-.96c-.404-.236-.874-.355-1.41-.355-.56 0-1.056.13-1.488.39a2.735 2.735 0 0 0-1.004 1.03 2.912 2.912 0 0 0-.372 1.426v2.172c0 .657.121 1.225.364 1.704.248.479.597.848 1.046 1.107.45.26.984.39 1.601.39.409 0 .784-.058 1.124-.173.341-.116.632-.289.874-.52.242-.23.427-.513.554-.847l3.408.225a4.648 4.648 0 0 1-1.064 2.145c-.53.606-1.217 1.079-2.059 1.419-.836.334-1.802.502-2.898.502Zm11.843-4.084.009-4.42h.536l4.257-5.044h4.23l-5.718 6.679h-.874l-2.44 2.785Zm-3.339 3.824V22.683h3.685V40.4h-3.685Zm8.305 0-3.91-5.787 2.457-2.604 5.77 8.391h-4.317Zm9.663.251c-.848 0-1.603-.147-2.267-.441a3.647 3.647 0 0 1-1.574-1.324c-.381-.588-.571-1.32-.571-2.197 0-.738.136-1.358.407-1.86.271-.502.64-.906 1.107-1.211a5.372 5.372 0 0 1 1.592-.692 12.116 12.116 0 0 1 1.886-.329c.772-.08 1.395-.156 1.868-.225.473-.075.816-.184 1.03-.329.213-.144.32-.357.32-.64v-.052c0-.548-.173-.971-.519-1.271-.341-.3-.825-.45-1.454-.45-.663 0-1.191.147-1.583.441a2.025 2.025 0 0 0-.778 1.09l-3.409-.277a4.626 4.626 0 0 1 1.021-2.093c.507-.594 1.162-1.05 1.964-1.367.807-.323 1.741-.485 2.803-.485.738 0 1.444.087 2.119.26a5.542 5.542 0 0 1 1.808.804 3.9 3.9 0 0 1 1.254 1.402c.306.565.459 1.243.459 2.033V40.4h-3.495v-1.843h-.104a3.752 3.752 0 0 1-.856 1.1 3.977 3.977 0 0 1-1.289.735c-.502.172-1.082.259-1.739.259Zm1.055-2.543c.542 0 1.021-.107 1.436-.32.416-.22.741-.514.978-.883a2.28 2.28 0 0 0 .355-1.254v-1.41a1.983 1.983 0 0 1-.476.207 8.648 8.648 0 0 1-.666.165c-.248.046-.496.09-.744.13l-.675.095c-.433.063-.81.164-1.133.302a1.814 1.814 0 0 0-.753.563c-.179.23-.268.519-.268.865 0 .502.182.885.545 1.15.369.26.836.39 1.401.39Zm20.343-7.207-3.374.208a1.75 1.75 0 0 0-.372-.779 1.97 1.97 0 0 0-.753-.562c-.305-.144-.671-.216-1.098-.216-.571 0-1.053.121-1.445.363-.392.237-.588.554-.588.952 0 .317.127.585.38.804.254.22.69.395 1.307.528l2.405.485c1.292.265 2.255.692 2.889 1.28.634.588.952 1.361.952 2.318 0 .871-.257 1.635-.77 2.293-.508.657-1.206 1.17-2.094 1.54-.882.363-1.9.545-3.054.545-1.759 0-3.16-.367-4.204-1.099-1.038-.738-1.646-1.742-1.825-3.01l3.624-.19c.11.536.375.945.796 1.228.421.276.961.415 1.618.415.646 0 1.165-.124 1.557-.372.398-.254.6-.58.606-.978a1.017 1.017 0 0 0-.424-.822c-.277-.219-.704-.386-1.28-.501l-2.302-.459c-1.297-.26-2.263-.71-2.898-1.35-.628-.64-.943-1.456-.943-2.447 0-.854.231-1.59.693-2.206.467-.618 1.121-1.093 1.963-1.428.848-.334 1.84-.502 2.976-.502 1.678 0 2.999.355 3.962 1.064.969.71 1.534 1.676 1.696 2.898Zm12.451-8.209v17.717h-3.746V22.692h3.746Zm2.895 3.088v-3.088h14.55v3.088h-5.424v14.63h-3.702V25.78h-5.424Z" />
                                </g>
                                <defs>
                                    <linearGradient id="c" x1="784.689" x2="404.327" y1="-231.157" y2="-171.053"
                                        gradientUnits="userSpaceOnUse">
                                        <stop stop-color="#3D71CA" />
                                        <stop offset="1" stop-color="#80B1FF" />
                                    </linearGradient>
                                    <linearGradient id="d" x1="534.313" x2="141.475" y1="-231.159" y2="-199.686"
                                        gradientUnits="userSpaceOnUse">
                                        <stop stop-color="#3D71CA" />
                                        <stop offset="1" stop-color="#80B1FF" />
                                    </linearGradient>
                                    <linearGradient id="e" x1="100.984" x2="252.786" y1="33.016" y2="337.151"
                                        gradientUnits="userSpaceOnUse">
                                        <stop stop-color="#3D71CA" />
                                        <stop offset="1" stop-color="#A4C7FF" />
                                    </linearGradient>
                                    <linearGradient id="f" x1="728.058" x2="610.628" y1="-53.02" y2="32.984"
                                        gradientUnits="userSpaceOnUse">
                                        <stop stop-color="#1A1930" />
                                        <stop offset="1" stop-color="#A4C7FF" />
                                    </linearGradient>
                                    <linearGradient id="g" x1="470.863" x2="345.536" y1="-57.22" y2="20.588"
                                        gradientUnits="userSpaceOnUse">
                                        <stop stop-color="#1A1930" />
                                        <stop offset="1" stop-color="#A4C7FF" />
                                    </linearGradient>
                                    <linearGradient id="h" x1="282.53" x2="282.53" y1="0" y2="200.91"
                                        gradientUnits="userSpaceOnUse">
                                        <stop stop-color="#1A1930" />
                                        <stop offset="1" stop-color="#1A1930" stop-opacity="0" />
                                    </linearGradient>
                                    <linearGradient id="i" x1="200.373" x2="363.394" y1="19.022" y2="19.022"
                                        gradientUnits="userSpaceOnUse">
                                        <stop stop-color="#1B1930" />
                                        <stop offset="1" stop-color="#1B1930" stop-opacity="0" />
                                    </linearGradient>
                                    <clipPath id="a">
                                        <path fill="#fff" d="M.3 0h685v66H.3z" />
                                    </clipPath>
                                    <clipPath id="b">
                                        <path fill="#fff" d="M200.373-137.482H685.3v340.964H200.373z" />
                                    </clipPath>
                                </defs>
                            </svg>
