<svg width="26" height="26" viewBox="0 0 26 26"
                                                                    fill="none" xmlns="http://www.w3.org/2000/svg">
                                                                    <rect width="26" height="26" fill="#1A1930" />
                                                                    <path
                                                                        d="M15.2375 13.6262L13.971 14.897C13.4574 15.4124 12.5537 15.4235 12.029 14.897L10.7624 13.6262L6.21338 18.19C6.38271 18.2683 6.56941 18.315 6.76789 18.315H19.2321C19.4306 18.315 19.6172 18.2684 19.7865 18.19L15.2375 13.6262Z"
                                                                        fill="url(#paint0_linear_431_114)" />
                                                                    <path
                                                                        d="M19.2321 7.68323H6.76789C6.56941 7.68323 6.38271 7.72995 6.21344 7.80825L11.0744 12.6853C11.0747 12.6857 11.0751 12.6857 11.0754 12.686C11.0757 12.6864 11.0758 12.6868 11.0758 12.6868L12.6564 14.2726C12.8243 14.4405 13.1758 14.4405 13.3437 14.2726L14.9239 12.6871C14.9239 12.6871 14.9243 12.6864 14.9246 12.686C14.9246 12.686 14.9253 12.6857 14.9256 12.6853L19.7865 7.80822C19.6172 7.72989 19.4306 7.68323 19.2321 7.68323Z"
                                                                        fill="#E3EEFF" />
                                                                    <path
                                                                        d="M5.58014 8.42834C5.49254 8.6055 5.43878 8.80215 5.43878 9.0128V16.9875C5.43878 17.1982 5.49248 17.3948 5.58011 17.572L10.137 13.0003L5.58014 8.42834Z"
                                                                        fill="#E3EEFF" />
                                                                    <path
                                                                        d="M20.4199 8.42834L15.863 13.0004L20.4199 17.5721C20.5075 17.3949 20.5612 17.1983 20.5612 16.9876V9.01286C20.5612 8.80215 20.5075 8.6055 20.4199 8.42834Z"
                                                                        fill="#E3EEFF" />
                                                                    <defs>
                                                                        <linearGradient id="paint0_linear_431_114"
                                                                            x1="6.21338" y1="18.315" x2="19.7796"
                                                                            y2="13.6065" gradientUnits="userSpaceOnUse">
                                                                            <stop stop-color="#3D71CA" />
                                                                            <stop offset="1" stop-color="#80B1FF" />
                                                                        </linearGradient>
                                                                    </defs>
                                                                </svg>