<svg width="182" height="103" viewBox="0 0 182 103" fill="none" xmlns="http://www.w3.org/2000/svg">
<path d="M12.3523 6.9642C12.287 6.24642 11.9967 5.68851 11.4812 5.29047C10.9722 4.88591 10.2446 4.68363 9.29847 4.68363C8.67205 4.68363 8.15003 4.76519 7.73241 4.92832C7.3148 5.09145 7.00159 5.31658 6.79278 5.60369C6.58397 5.88427 6.47631 6.20727 6.46978 6.57269C6.45673 6.87285 6.51546 7.13712 6.64596 7.3655C6.78299 7.59389 6.97875 7.79617 7.23323 7.97235C7.49424 8.14201 7.80746 8.29209 8.17287 8.42259C8.53828 8.5531 8.94937 8.66729 9.40614 8.76517L11.1288 9.15668C12.1206 9.37201 12.995 9.65913 13.752 10.018C14.5154 10.3769 15.1549 10.8043 15.6704 11.3002C16.1924 11.7961 16.5872 12.3671 16.8547 13.0131C17.1222 13.6591 17.2593 14.3834 17.2658 15.186C17.2593 16.4519 16.9395 17.5384 16.3066 18.4454C15.6736 19.3524 14.7634 20.0473 13.5758 20.5302C12.3947 21.0131 10.9689 21.2545 9.29847 21.2545C7.62149 21.2545 6.15983 21.0033 4.91351 20.5008C3.66719 19.9984 2.69819 19.2349 2.00651 18.2105C1.31484 17.186 0.959211 15.8907 0.939635 14.3247H5.57908C5.61824 14.9707 5.79115 15.509 6.09784 15.9397C6.40453 16.3703 6.82541 16.6966 7.36048 16.9185C7.90207 17.1403 8.52849 17.2512 9.23975 17.2512C9.89227 17.2512 10.4469 17.1632 10.9037 16.987C11.367 16.8108 11.7226 16.5661 11.9706 16.2529C12.2185 15.9397 12.3458 15.5808 12.3523 15.1762C12.3458 14.7978 12.2283 14.4748 11.9999 14.2072C11.7715 13.9332 11.4192 13.6983 10.9428 13.5025C10.473 13.3002 9.87269 13.1142 9.14187 12.9446L7.04726 12.4552C5.31155 12.0572 3.94451 11.4144 2.94615 10.527C1.94779 9.63302 1.45187 8.42585 1.45839 6.90547C1.45187 5.66568 1.78465 4.57922 2.45675 3.64611C3.12885 2.713 4.0587 1.98544 5.2463 1.46342C6.43389 0.941399 7.78788 0.680389 9.30826 0.680389C10.8613 0.680389 12.2087 0.944661 13.3506 1.47321C14.4991 1.99523 15.3898 2.72932 16.0227 3.67548C16.6557 4.62164 16.9787 5.71788 16.9917 6.9642H12.3523ZM27.2819 21.2838C25.7028 21.2838 24.3456 20.9608 23.2102 20.3148C22.0813 19.6623 21.2102 18.7553 20.5968 17.5938C19.99 16.4258 19.6865 15.0718 19.6865 13.5319C19.6865 11.9854 19.99 10.6314 20.5968 9.46989C21.2102 8.30187 22.0813 7.39487 23.2102 6.74887C24.3456 6.09634 25.7028 5.77008 27.2819 5.77008C28.861 5.77008 30.215 6.09634 31.3439 6.74887C32.4793 7.39487 33.3504 8.30187 33.9572 9.46989C34.5706 10.6314 34.8773 11.9854 34.8773 13.5319C34.8773 15.0718 34.5706 16.4258 33.9572 17.5938C33.3504 18.7553 32.4793 19.6623 31.3439 20.3148C30.215 20.9608 28.861 21.2838 27.2819 21.2838ZM27.3113 17.6721C27.8855 17.6721 28.3716 17.4959 28.7697 17.1436C29.1677 16.7912 29.4711 16.3018 29.6799 15.6754C29.8953 15.049 30.0029 14.3247 30.0029 13.5025C30.0029 12.6673 29.8953 11.9364 29.6799 11.31C29.4711 10.6836 29.1677 10.1942 28.7697 9.84183C28.3716 9.48947 27.8855 9.31329 27.3113 9.31329C26.7175 9.31329 26.215 9.48947 25.8039 9.84183C25.3994 10.1942 25.0894 10.6836 24.8741 11.31C24.6653 11.9364 24.5609 12.6673 24.5609 13.5025C24.5609 14.3247 24.6653 15.049 24.8741 15.6754C25.0894 16.3018 25.3994 16.7912 25.8039 17.1436C26.215 17.4959 26.7175 17.6721 27.3113 17.6721ZM46.4252 5.96584V9.48947H36.7548V5.96584H46.4252ZM38.7711 21V5.20238C38.7711 4.04089 38.9897 3.07842 39.4269 2.31496C39.8641 1.54498 40.4709 0.970762 41.2474 0.592299C42.0239 0.207308 42.9212 0.0148132 43.9391 0.0148132C44.6047 0.0148132 45.2311 0.0670157 45.8184 0.171421C46.4122 0.269299 46.8526 0.35739 47.1397 0.435693L46.3763 3.93975C46.2001 3.88102 45.9848 3.83208 45.7303 3.79293C45.4823 3.75378 45.2474 3.7342 45.0256 3.7342C44.4644 3.7342 44.0794 3.85818 43.8706 4.10614C43.6618 4.3541 43.5574 4.69341 43.5574 5.12408V21H38.7711ZM57.7652 5.96584V9.48947H48.2807V5.96584H57.7652ZM50.2676 2.3639H55.0539V16.2725C55.0539 16.5661 55.0996 16.8043 55.1909 16.987C55.2888 17.1632 55.4291 17.2904 55.6118 17.3687C55.7945 17.4405 56.0131 17.4764 56.2676 17.4764C56.4503 17.4764 56.6428 17.4601 56.8451 17.4274C57.0539 17.3883 57.2105 17.3557 57.3149 17.3295L58.0392 20.7847C57.8108 20.8499 57.4878 20.9315 57.0702 21.0294C56.6591 21.1272 56.1665 21.1892 55.5922 21.2153C54.4699 21.2675 53.5074 21.137 52.7048 20.8238C51.9087 20.5041 51.2986 20.0082 50.8745 19.3361C50.4569 18.664 50.2546 17.8189 50.2676 16.801V2.3639ZM63.5676 21L59.6524 5.96584H64.4583L66.4844 15.5971H66.6116L68.7845 5.96584H73.4729L75.7045 15.5286H75.8318L77.7992 5.96584H82.605L78.6801 21H73.561L71.2119 12.2399H71.0455L68.6964 21H63.5676ZM89.3153 21.2545C88.3561 21.2545 87.5045 21.0946 86.7606 20.7749C86.0233 20.4486 85.4393 19.9592 85.0086 19.3067C84.5845 18.6476 84.3724 17.8222 84.3724 16.8304C84.3724 15.9951 84.5192 15.2904 84.8128 14.7162C85.1065 14.142 85.511 13.6754 86.0265 13.3165C86.542 12.9576 87.1358 12.6868 87.8079 12.5041C88.48 12.3149 89.1978 12.1877 89.9613 12.1224C90.8161 12.0441 91.5045 11.9625 92.0265 11.8777C92.5485 11.7864 92.927 11.6591 93.1619 11.496C93.4033 11.3263 93.524 11.0882 93.524 10.7815V10.7325C93.524 10.2301 93.3511 9.84183 93.0053 9.56777C92.6595 9.29371 92.1929 9.15668 91.6056 9.15668C90.9727 9.15668 90.4637 9.29371 90.0787 9.56777C89.6937 9.84183 89.449 10.2203 89.3446 10.7032L84.9303 10.5466C85.0608 9.63302 85.3969 8.81737 85.9384 8.09959C86.4866 7.37529 87.237 6.80759 88.1897 6.3965C89.1489 5.97889 90.3006 5.77008 91.6448 5.77008C92.604 5.77008 93.4882 5.88427 94.2973 6.11265C95.1064 6.33451 95.8111 6.66078 96.4115 7.09144C97.0118 7.51558 97.4751 8.0376 97.8013 8.6575C98.1341 9.2774 98.3005 9.98539 98.3005 10.7815V21H93.7981V18.9054H93.6807C93.4131 19.4144 93.0705 19.845 92.6529 20.1974C92.2418 20.5498 91.7557 20.814 91.1945 20.9902C90.6399 21.1664 90.0135 21.2545 89.3153 21.2545ZM90.7932 18.1224C91.3087 18.1224 91.772 18.018 92.1831 17.8092C92.6007 17.6003 92.9335 17.3132 93.1815 16.9478C93.4294 16.5759 93.5534 16.1452 93.5534 15.6558V14.2268C93.4164 14.2986 93.25 14.3638 93.0542 14.4226C92.865 14.4813 92.6562 14.5367 92.4278 14.5889C92.1994 14.6411 91.9645 14.6868 91.7231 14.726C91.4816 14.7651 91.25 14.801 91.0281 14.8336C90.5779 14.9054 90.1929 15.0164 89.8732 15.1664C89.56 15.3165 89.3185 15.5123 89.1489 15.7537C88.9857 15.9886 88.9042 16.2692 88.9042 16.5955C88.9042 17.0914 89.0804 17.4698 89.4327 17.7309C89.7916 17.9919 90.2451 18.1224 90.7932 18.1224ZM101.778 21V5.96584H106.428V8.70644H106.584C106.858 7.7146 107.305 6.97725 107.925 6.49438C108.545 6.00499 109.266 5.76029 110.088 5.76029C110.31 5.76029 110.538 5.77661 110.773 5.80923C111.008 5.83533 111.227 5.87775 111.429 5.93647V10.0963C111.201 10.018 110.901 9.95602 110.529 9.91035C110.163 9.86467 109.837 9.84183 109.55 9.84183C108.982 9.84183 108.47 9.96907 108.013 10.2236C107.563 10.4715 107.207 10.8206 106.946 11.2709C106.692 11.7146 106.565 12.2366 106.565 12.8369V21H101.778ZM120.178 21.2838C118.605 21.2838 117.248 20.9739 116.106 20.354C114.971 19.7276 114.096 18.8369 113.483 17.6819C112.876 16.5204 112.573 15.1403 112.573 13.5416C112.573 11.9886 112.879 10.6314 113.493 9.46989C114.106 8.30187 114.971 7.39487 116.086 6.74887C117.202 6.09634 118.517 5.77008 120.031 5.77008C121.101 5.77008 122.08 5.93647 122.967 6.26926C123.855 6.60205 124.621 7.0947 125.267 7.74723C125.913 8.39975 126.416 9.20562 126.775 10.1648C127.134 11.1175 127.313 12.2105 127.313 13.4438V14.6379H114.246V11.8581H122.86C122.853 11.3492 122.732 10.8957 122.497 10.4976C122.263 10.0996 121.94 9.78963 121.528 9.56777C121.124 9.33939 120.657 9.2252 120.129 9.2252C119.594 9.2252 119.114 9.34591 118.69 9.58735C118.266 9.82226 117.93 10.1453 117.682 10.5563C117.434 10.9609 117.303 11.4209 117.29 11.9364V14.7651C117.29 15.3785 117.411 15.9168 117.653 16.3801C117.894 16.8369 118.237 17.1925 118.68 17.447C119.124 17.7015 119.652 17.8287 120.266 17.8287C120.69 17.8287 121.075 17.77 121.421 17.6525C121.767 17.5351 122.064 17.3622 122.312 17.1338C122.559 16.9054 122.745 16.6248 122.869 16.292L127.264 16.4193C127.081 17.4046 126.68 18.2627 126.06 18.9935C125.447 19.7178 124.641 20.2822 123.643 20.6868C122.644 21.0848 121.489 21.2838 120.178 21.2838ZM133.001 21.2838C132.296 21.2838 131.692 21.0359 131.19 20.54C130.694 20.0441 130.449 19.4437 130.456 18.739C130.449 18.0473 130.694 17.4568 131.19 16.9674C131.692 16.4715 132.296 16.2235 133.001 16.2235C133.666 16.2235 134.253 16.4715 134.762 16.9674C135.278 17.4568 135.539 18.0473 135.545 18.739C135.539 19.2088 135.415 19.6362 135.173 20.0212C134.939 20.4062 134.629 20.7129 134.244 20.9413C133.865 21.1697 133.451 21.2838 133.001 21.2838Z" fill="url(#paint0_linear_431_151)"/>
<path d="M44.4204 59.0625V39.0169H52.7793C54.2801 39.0169 55.5362 39.229 56.5476 39.6532C57.5655 40.0773 58.329 40.6711 58.838 41.4346C59.3535 42.198 59.6112 43.0822 59.6112 44.0871C59.6112 44.8505 59.4513 45.5324 59.1316 46.1327C58.8119 46.7265 58.3714 47.2192 57.8102 47.6107C57.2491 48.0022 56.5998 48.2763 55.8625 48.4329V48.6286C56.6716 48.6678 57.4187 48.8864 58.1039 49.2844C58.7956 49.6825 59.3502 50.2371 59.7678 50.9484C60.1854 51.6531 60.3942 52.4883 60.3942 53.4541C60.3942 54.5307 60.1202 55.4932 59.5721 56.3415C59.0239 57.1832 58.2311 57.8488 57.1936 58.3382C56.1561 58.8211 54.8967 59.0625 53.4155 59.0625H44.4204ZM49.2654 55.1571H52.2605C53.3111 55.1571 54.0843 54.9581 54.5802 54.5601C55.0827 54.162 55.3339 53.6074 55.3339 52.8961C55.3339 52.3806 55.2132 51.9369 54.9718 51.565C54.7303 51.1865 54.3878 50.8962 53.944 50.6939C53.5003 50.4851 52.9685 50.3807 52.3486 50.3807H49.2654V55.1571ZM49.2654 47.2583H51.9473C52.4759 47.2583 52.9457 47.1702 53.3568 46.9941C53.7679 46.8179 54.0876 46.5634 54.316 46.2306C54.5509 45.8978 54.6683 45.4965 54.6683 45.0267C54.6683 44.3546 54.4302 43.8261 53.9538 43.4411C53.4775 43.0561 52.8347 42.8636 52.0256 42.8636H49.2654V47.2583ZM70.3027 59.3463C68.7301 59.3463 67.3729 59.0364 66.2309 58.4165C65.0955 57.7901 64.2212 56.8994 63.6078 55.7444C63.0009 54.5829 62.6975 53.2028 62.6975 51.6041C62.6975 50.0511 63.0042 48.6939 63.6176 47.5324C64.231 46.3644 65.0955 45.4574 66.2114 44.8114C67.3272 44.1588 68.642 43.8326 70.1559 43.8326C71.226 43.8326 72.2048 43.999 73.0922 44.3318C73.9797 44.6645 74.7464 45.1572 75.3924 45.8097C76.0384 46.4623 76.5408 47.2681 76.8997 48.2273C77.2586 49.18 77.438 50.273 77.438 51.5063V52.7004H64.3712V49.9206H72.9846C72.978 49.4117 72.8573 48.9582 72.6224 48.5601C72.3875 48.1621 72.0645 47.8521 71.6534 47.6303C71.2489 47.4019 70.7823 47.2877 70.2538 47.2877C69.7187 47.2877 69.2391 47.4084 68.8149 47.6498C68.3908 47.8848 68.0547 48.2078 67.8068 48.6188C67.5588 49.0234 67.4283 49.4834 67.4153 49.9989V52.8276C67.4153 53.441 67.536 53.9793 67.7774 54.4426C68.0189 54.8994 68.3614 55.255 68.8051 55.5095C69.2489 55.764 69.7774 55.8912 70.3908 55.8912C70.8149 55.8912 71.1999 55.8325 71.5457 55.715C71.8916 55.5976 72.1885 55.4247 72.4364 55.1963C72.6844 54.9679 72.8704 54.6873 72.9944 54.3545L77.3891 54.4818C77.2064 55.4671 76.8051 56.3252 76.1852 57.056C75.5718 57.7803 74.766 58.3447 73.7676 58.7493C72.7692 59.1473 71.6143 59.3463 70.3027 59.3463ZM80.4338 59.0625V44.0283H85.0831V46.7689H85.2397C85.5137 45.7771 85.9607 45.0397 86.5806 44.5569C87.2005 44.0675 87.9215 43.8228 88.7437 43.8228C88.9656 43.8228 89.194 43.8391 89.4289 43.8717C89.6638 43.8978 89.8824 43.9402 90.0847 43.999V48.1588C89.8563 48.0805 89.5561 48.0185 89.1842 47.9728C88.8188 47.9272 88.4925 47.9043 88.2054 47.9043C87.6377 47.9043 87.1255 48.0316 86.6687 48.2861C86.2184 48.534 85.8628 48.8831 85.6018 49.3334C85.3473 49.7771 85.2201 50.2991 85.2201 50.8994V59.0625H80.4338ZM96.259 59.317C95.2998 59.317 94.4483 59.1571 93.7044 58.8374C92.967 58.5111 92.383 58.0217 91.9524 57.3692C91.5282 56.7101 91.3162 55.8847 91.3162 54.8929C91.3162 54.0576 91.463 53.3529 91.7566 52.7787C92.0503 52.2045 92.4548 51.7379 92.9703 51.379C93.4858 51.0201 94.0796 50.7493 94.7517 50.5666C95.4238 50.3774 96.1416 50.2502 96.905 50.1849C97.7598 50.1066 98.4483 50.025 98.9703 49.9402C99.4923 49.8489 99.8708 49.7216 100.106 49.5585C100.347 49.3888 100.468 49.1507 100.468 48.844V48.795C100.468 48.2926 100.295 47.9043 99.9491 47.6303C99.6032 47.3562 99.1367 47.2192 98.5494 47.2192C97.9164 47.2192 97.4075 47.3562 97.0225 47.6303C96.6375 47.9043 96.3928 48.2828 96.2884 48.7657L91.8741 48.6091C92.0046 47.6955 92.3406 46.8799 92.8822 46.1621C93.4303 45.4378 94.1807 44.8701 95.1334 44.459C96.0926 44.0414 97.2443 43.8326 98.5885 43.8326C99.5478 43.8326 100.432 43.9468 101.241 44.1752C102.05 44.397 102.755 44.7233 103.355 45.1539C103.956 45.5781 104.419 46.1001 104.745 46.72C105.078 47.3399 105.244 48.0479 105.244 48.844V59.0625H100.742V56.9679H100.624C100.357 57.4769 100.014 57.9075 99.5967 58.2599C99.1856 58.6123 98.6995 58.8765 98.1383 59.0527C97.5837 59.2289 96.9572 59.317 96.259 59.317ZM97.737 56.1849C98.2525 56.1849 98.7158 56.0805 99.1269 55.8717C99.5445 55.6628 99.8773 55.3757 100.125 55.0103C100.373 54.6384 100.497 54.2077 100.497 53.7183V52.2893C100.36 52.3611 100.194 52.4263 99.998 52.4851C99.8088 52.5438 99.6 52.5992 99.3716 52.6514C99.1432 52.7036 98.9083 52.7493 98.6668 52.7885C98.4254 52.8276 98.1938 52.8635 97.9719 52.8961C97.5217 52.9679 97.1367 53.0789 96.8169 53.2289C96.5037 53.379 96.2623 53.5748 96.0926 53.8162C95.9295 54.0511 95.8479 54.3317 95.8479 54.658C95.8479 55.1539 96.0241 55.5323 96.3765 55.7934C96.7354 56.0544 97.1889 56.1849 97.737 56.1849ZM117.208 44.0283V47.552H107.724V44.0283H117.208ZM109.711 40.4264H114.497V54.335C114.497 54.6286 114.543 54.8668 114.634 55.0495C114.732 55.2257 114.872 55.3529 115.055 55.4312C115.238 55.503 115.456 55.5389 115.711 55.5389C115.893 55.5389 116.086 55.5226 116.288 55.4899C116.497 55.4508 116.654 55.4182 116.758 55.392L117.482 58.8472C117.254 58.9124 116.931 58.994 116.513 59.0919C116.102 59.1897 115.61 59.2517 115.035 59.2778C113.913 59.33 112.95 59.1995 112.148 58.8863C111.352 58.5666 110.742 58.0707 110.318 57.3986C109.9 56.7265 109.698 55.8814 109.711 54.8635V40.4264ZM129.901 52.5731V44.0283H134.678V59.0625H130.117V56.2632H129.96C129.627 57.1832 129.06 57.9141 128.257 58.4557C127.461 58.9907 126.498 59.2583 125.37 59.2583C124.345 59.2583 123.445 59.0233 122.668 58.5535C121.892 58.0837 121.288 57.4279 120.857 56.5862C120.427 55.7379 120.208 54.7461 120.202 53.6107V44.0283H124.988V52.671C124.994 53.4867 125.21 54.1294 125.634 54.5992C126.058 55.0691 126.635 55.304 127.366 55.304C127.843 55.304 128.27 55.1996 128.648 54.9907C129.033 54.7754 129.337 54.4655 129.559 54.0609C129.787 53.6498 129.901 53.1539 129.901 52.5731ZM143.062 50.4883V59.0625H138.276V44.0283H142.827V46.7885H142.993C143.326 45.8685 143.894 45.1474 144.696 44.6254C145.499 44.0969 146.455 43.8326 147.564 43.8326C148.621 43.8326 149.538 44.0708 150.315 44.5471C151.098 45.0169 151.704 45.676 152.135 46.5242C152.572 47.366 152.788 48.3513 152.781 49.4802V59.0625H147.995V50.4198C148.001 49.5846 147.789 48.9321 147.359 48.4622C146.935 47.9924 146.344 47.7575 145.587 47.7575C145.085 47.7575 144.641 47.8684 144.256 48.0903C143.877 48.3056 143.584 48.6156 143.375 49.0201C143.173 49.4247 143.068 49.9141 143.062 50.4883ZM163.304 65.0135C161.875 65.0135 160.651 64.8145 159.633 64.4165C158.615 64.0184 157.816 63.4736 157.235 62.7819C156.655 62.0902 156.305 61.3072 156.188 60.4328L160.72 60.1783C160.805 60.485 160.961 60.7525 161.19 60.9809C161.424 61.2093 161.728 61.3855 162.1 61.5095C162.478 61.6334 162.922 61.6954 163.431 61.6954C164.234 61.6954 164.896 61.4997 165.418 61.1082C165.946 60.7232 166.211 60.0478 166.211 59.0821V56.4394H166.044C165.855 56.9026 165.568 57.317 165.183 57.6824C164.798 58.0478 164.318 58.3349 163.744 58.5437C163.177 58.7526 162.524 58.857 161.787 58.857C160.69 58.857 159.686 58.6025 158.772 58.0935C157.865 57.578 157.137 56.7819 156.589 55.7053C156.048 54.6221 155.777 53.2289 155.777 51.5258C155.777 49.7706 156.057 48.3252 156.619 47.1898C157.18 46.0479 157.914 45.2029 158.821 44.6548C159.734 44.1066 160.717 43.8326 161.767 43.8326C162.557 43.8326 163.232 43.9696 163.793 44.2437C164.361 44.5112 164.827 44.857 165.193 45.2812C165.558 45.7053 165.836 46.1458 166.025 46.6025H166.162V44.0283H170.929V59.1212C170.929 60.3936 170.609 61.4671 169.969 62.3414C169.33 63.2158 168.436 63.8781 167.287 64.3284C166.139 64.7851 164.811 65.0135 163.304 65.0135ZM163.451 55.3725C164.031 55.3725 164.527 55.2191 164.938 54.9124C165.349 54.6058 165.666 54.1653 165.888 53.5911C166.11 53.0169 166.221 52.3284 166.221 51.5258C166.221 50.7102 166.11 50.0087 165.888 49.4215C165.672 48.8277 165.356 48.3709 164.938 48.0512C164.527 47.7314 164.031 47.5715 163.451 47.5715C162.857 47.5715 162.354 47.7347 161.943 48.0609C161.532 48.3872 161.219 48.8472 161.004 49.441C160.795 50.0283 160.69 50.7232 160.69 51.5258C160.69 52.3284 160.798 53.0169 161.013 53.5911C161.229 54.1653 161.539 54.6058 161.943 54.9124C162.354 55.2191 162.857 55.3725 163.451 55.3725ZM177.223 59.3463C176.518 59.3463 175.914 59.0984 175.412 58.6025C174.916 58.1066 174.671 57.5062 174.678 56.8015C174.671 56.1098 174.916 55.5193 175.412 55.0299C175.914 54.534 176.518 54.286 177.223 54.286C177.888 54.286 178.476 54.534 178.985 55.0299C179.5 55.5193 179.761 56.1098 179.768 56.8015C179.761 57.2713 179.637 57.6987 179.396 58.0837C179.161 58.4687 178.851 58.7754 178.466 59.0038C178.087 59.2322 177.673 59.3463 177.223 59.3463Z" fill="#1A1930"/>
<path opacity="0.2" d="M12.3523 83.0902C12.287 82.3724 11.9967 81.8145 11.4812 81.4165C10.9722 81.0119 10.2446 80.8096 9.29847 80.8096C8.67205 80.8096 8.15003 80.8912 7.73241 81.0543C7.3148 81.2174 7.00159 81.4426 6.79278 81.7297C6.58397 82.0102 6.47631 82.3332 6.46978 82.6987C6.45673 82.9988 6.51546 83.2631 6.64596 83.4915C6.78299 83.7199 6.97875 83.9221 7.23323 84.0983C7.49424 84.268 7.80746 84.4181 8.17287 84.5486C8.53828 84.6791 8.94937 84.7933 9.40614 84.8911L11.1288 85.2827C12.1206 85.498 12.995 85.7851 13.752 86.144C14.5154 86.5029 15.1549 86.9303 15.6704 87.4262C16.1924 87.9221 16.5872 88.4931 16.8547 89.1391C17.1222 89.7851 17.2593 90.5094 17.2658 91.312C17.2593 92.5779 16.9395 93.6643 16.3066 94.5713C15.6736 95.4784 14.7634 96.1733 13.5758 96.6562C12.3947 97.139 10.9689 97.3805 9.29847 97.3805C7.62149 97.3805 6.15983 97.1292 4.91351 96.6268C3.66719 96.1244 2.69819 95.3609 2.00651 94.3364C1.31484 93.312 0.959211 92.0167 0.939635 90.4507H5.57908C5.61824 91.0967 5.79115 91.635 6.09784 92.0656C6.40453 92.4963 6.82541 92.8226 7.36048 93.0444C7.90207 93.2663 8.52849 93.3772 9.23975 93.3772C9.89227 93.3772 10.4469 93.2891 10.9037 93.113C11.367 92.9368 11.7226 92.6921 11.9706 92.3789C12.2185 92.0656 12.3458 91.7068 12.3523 91.3022C12.3458 90.9237 12.2283 90.6007 11.9999 90.3332C11.7715 90.0591 11.4192 89.8242 10.9428 89.6285C10.473 89.4262 9.87269 89.2402 9.14187 89.0706L7.04726 88.5812C5.31155 88.1831 3.94451 87.5404 2.94615 86.653C1.94779 85.759 1.45187 84.5518 1.45839 83.0314C1.45187 81.7917 1.78465 80.7052 2.45675 79.7721C3.12885 78.839 4.0587 78.1114 5.2463 77.5894C6.43389 77.0674 7.78788 76.8064 9.30826 76.8064C10.8613 76.8064 12.2087 77.0706 13.3506 77.5992C14.4991 78.1212 15.3898 78.8553 16.0227 79.8015C16.6557 80.7476 16.9787 81.8439 16.9917 83.0902H12.3523ZM23.1906 102.764C22.6164 102.764 22.0748 102.718 21.5658 102.627C21.0568 102.542 20.6196 102.428 20.2542 102.284L21.3113 98.8095C21.7811 98.9661 22.2053 99.0574 22.5837 99.0835C22.9687 99.1097 23.2983 99.0477 23.5723 98.8976C23.8529 98.754 24.0682 98.4963 24.2183 98.1243L24.4043 97.6741L19.0601 82.0918H24.0715L26.8415 92.8193H26.9981L29.8072 82.0918H34.8479L29.1808 98.5648C28.9067 99.387 28.5185 100.111 28.016 100.738C27.5201 101.371 26.8774 101.867 26.0878 102.225C25.3048 102.584 24.339 102.764 23.1906 102.764ZM50.3599 86.6823L45.9652 86.7998C45.9195 86.4866 45.7955 86.2092 45.5933 85.9678C45.391 85.7198 45.1267 85.5274 44.8004 85.3903C44.4807 85.2468 44.1088 85.175 43.6846 85.175C43.13 85.175 42.6569 85.2859 42.2654 85.5078C41.8804 85.7296 41.6912 86.0298 41.6977 86.4083C41.6912 86.7019 41.8086 86.9564 42.05 87.1717C42.298 87.387 42.7385 87.56 43.3714 87.6905L46.2686 88.2386C47.7694 88.5257 48.8852 89.002 49.6161 89.6676C50.3534 90.3332 50.7254 91.2141 50.7319 92.3103C50.7254 93.3413 50.4187 94.2386 49.8118 95.002C49.2115 95.7655 48.3893 96.3593 47.3453 96.7834C46.3012 97.201 45.1071 97.4098 43.7629 97.4098C41.6161 97.4098 39.9228 96.9694 38.683 96.0885C37.4497 95.201 36.745 94.0134 36.5688 92.5257L41.2964 92.4082C41.4008 92.9563 41.6716 93.374 42.1088 93.6611C42.546 93.9482 43.1039 94.0917 43.7825 94.0917C44.3959 94.0917 44.8951 93.9775 45.28 93.7492C45.665 93.5208 45.8608 93.2174 45.8673 92.8389C45.8608 92.4996 45.7107 92.2288 45.4171 92.0265C45.1234 91.8177 44.6634 91.6546 44.037 91.5371L41.4138 91.0379C39.9065 90.7639 38.7842 90.2582 38.0468 89.5208C37.3095 88.7769 36.944 87.8308 36.9506 86.6823C36.944 85.6774 37.2116 84.8194 37.7532 84.1081C38.2948 83.3903 39.0647 82.8422 40.0631 82.4638C41.0615 82.0853 42.2393 81.8961 43.5965 81.8961C45.6324 81.8961 47.2376 82.3235 48.4122 83.1783C49.5867 84.0265 50.236 85.1946 50.3599 86.6823ZM62.1256 82.0918V85.6154H52.6412V82.0918H62.1256ZM54.6281 78.4899H59.4144V92.3984C59.4144 92.6921 59.4601 92.9302 59.5514 93.113C59.6493 93.2891 59.7896 93.4164 59.9723 93.4947C60.155 93.5665 60.3736 93.6023 60.6281 93.6023C60.8108 93.6023 61.0033 93.586 61.2056 93.5534C61.4144 93.5143 61.571 93.4816 61.6754 93.4555L62.3997 96.9106C62.1713 96.9759 61.8483 97.0575 61.4307 97.1553C61.0196 97.2532 60.527 97.3152 59.9527 97.3413C58.8304 97.3935 57.8679 97.263 57.0653 96.9498C56.2692 96.6301 55.6591 96.1341 55.235 95.462C54.8174 94.7899 54.6151 93.9449 54.6281 92.927V78.4899ZM71.9852 97.4098C70.4126 97.4098 69.0553 97.0999 67.9134 96.48C66.778 95.8536 65.9036 94.9629 65.2903 93.8079C64.6834 92.6464 64.38 91.2663 64.38 89.6676C64.38 88.1146 64.6867 86.7574 65.3 85.5959C65.9134 84.4279 66.778 83.5208 67.8938 82.8748C69.0096 82.2223 70.3245 81.8961 71.8383 81.8961C72.9085 81.8961 73.8873 82.0625 74.7747 82.3952C75.6621 82.728 76.4288 83.2207 77.0748 83.8732C77.7208 84.5257 78.2233 85.3316 78.5822 86.2908C78.9411 87.2435 79.1205 88.3365 79.1205 89.5697V90.7639H66.0537V87.9841H74.667C74.6605 87.4751 74.5398 87.0216 74.3049 86.6236C74.07 86.2256 73.747 85.9156 73.3359 85.6937C72.9313 85.4654 72.4648 85.3512 71.9362 85.3512C71.4011 85.3512 70.9215 85.4719 70.4974 85.7133C70.0733 85.9482 69.7372 86.2712 69.4893 86.6823C69.2413 87.0869 69.1108 87.5469 69.0977 88.0624V90.8911C69.0977 91.5045 69.2185 92.0428 69.4599 92.5061C69.7013 92.9629 70.0439 93.3185 70.4876 93.573C70.9313 93.8275 71.4599 93.9547 72.0732 93.9547C72.4974 93.9547 72.8824 93.896 73.2282 93.7785C73.5741 93.6611 73.871 93.4882 74.1189 93.2598C74.3669 93.0314 74.5528 92.7508 74.6768 92.418L79.0716 92.5453C78.8889 93.5306 78.4876 94.3886 77.8677 95.1195C77.2543 95.8438 76.4484 96.4082 75.4501 96.8128C74.4517 97.2108 73.2967 97.4098 71.9852 97.4098ZM82.1163 97.126V82.0918H86.6676V84.852H86.834C87.1472 83.9385 87.6758 83.2174 88.4197 82.6889C89.1636 82.1603 90.051 81.8961 91.082 81.8961C92.126 81.8961 93.02 82.1636 93.7638 82.6987C94.5077 83.2337 94.9808 83.9515 95.1831 84.852H95.3397C95.6203 83.958 96.1684 83.2435 96.9841 82.7084C97.7997 82.1669 98.7622 81.8961 99.8715 81.8961C101.294 81.8961 102.449 82.3528 103.336 83.2664C104.224 84.1734 104.668 85.4197 104.668 87.0053V97.126H99.8813V88.1016C99.8813 87.3512 99.6888 86.7802 99.3038 86.3887C98.9188 85.9906 98.4196 85.7916 97.8062 85.7916C97.1472 85.7916 96.6284 86.007 96.25 86.4376C95.878 86.8618 95.6921 87.4327 95.6921 88.1505V97.126H91.0918V88.0526C91.0918 87.3544 90.9025 86.803 90.5241 86.3985C90.1456 85.9939 89.6464 85.7916 89.0265 85.7916C88.6089 85.7916 88.2402 85.8928 87.9205 86.0951C87.6008 86.2908 87.3495 86.5714 87.1668 86.9368C86.9906 87.3022 86.9026 87.7329 86.9026 88.2288V97.126H82.1163ZM115.212 97.4098C113.64 97.4098 112.282 97.0999 111.14 96.48C110.005 95.8536 109.131 94.9629 108.517 93.8079C107.91 92.6464 107.607 91.2663 107.607 89.6676C107.607 88.1146 107.914 86.7574 108.527 85.5959C109.14 84.4279 110.005 83.5208 111.121 82.8748C112.237 82.2223 113.552 81.8961 115.065 81.8961C116.136 81.8961 117.114 82.0625 118.002 82.3952C118.889 82.728 119.656 83.2207 120.302 83.8732C120.948 84.5257 121.45 85.3316 121.809 86.2908C122.168 87.2435 122.348 88.3365 122.348 89.5697V90.7639H109.281V87.9841H117.894C117.888 87.4751 117.767 87.0216 117.532 86.6236C117.297 86.2256 116.974 85.9156 116.563 85.6937C116.158 85.4654 115.692 85.3512 115.163 85.3512C114.628 85.3512 114.149 85.4719 113.724 85.7133C113.3 85.9482 112.964 86.2712 112.716 86.6823C112.468 87.0869 112.338 87.5469 112.325 88.0624V90.8911C112.325 91.5045 112.445 92.0428 112.687 92.5061C112.928 92.9629 113.271 93.3185 113.715 93.573C114.158 93.8275 114.687 93.9547 115.3 93.9547C115.724 93.9547 116.109 93.896 116.455 93.7785C116.801 93.6611 117.098 93.4882 117.346 93.2598C117.594 93.0314 117.78 92.7508 117.904 92.418L122.299 92.5453C122.116 93.5306 121.715 94.3886 121.095 95.1195C120.481 95.8438 119.675 96.4082 118.677 96.8128C117.679 97.2108 116.524 97.4098 115.212 97.4098ZM128.035 97.4098C127.33 97.4098 126.727 97.1619 126.224 96.6659C125.728 96.17 125.484 95.5697 125.49 94.865C125.484 94.1733 125.728 93.5828 126.224 93.0934C126.727 92.5975 127.33 92.3495 128.035 92.3495C128.701 92.3495 129.288 92.5975 129.797 93.0934C130.312 93.5828 130.573 94.1733 130.58 94.865C130.573 95.3348 130.449 95.7622 130.208 96.1472C129.973 96.5322 129.663 96.8389 129.278 97.0672C128.9 97.2956 128.485 97.4098 128.035 97.4098Z" fill="#1A1930"/>
<path d="M13.1782 59.0625L6.49612 49.0634L7.49321e-06 49.0634L7.4916e-06 49.0817L6.66937 59.0625L13.1782 59.0625Z" fill="url(#paint1_linear_431_151)"/>
<path d="M25.8818 49.0615L19.1998 39.0624L12.7037 39.0624L12.7037 39.0807L19.373 49.0615L25.8818 49.0615Z" fill="url(#paint2_linear_431_151)"/>
<path d="M3.03961 39.0625H9.5484L22.9125 59.0621H16.4037L3.03961 39.0625Z" fill="#1A1930"/>
<defs>
<linearGradient id="paint0_linear_431_151" x1="-1.02818e-06" y1="21" x2="91.7505" y2="-54.9046" gradientUnits="userSpaceOnUse">
<stop stop-color="#3D71CA"/>
<stop offset="1" stop-color="#80B1FF"/>
</linearGradient>
<linearGradient id="paint1_linear_431_151" x1="13.1782" y1="49.0634" x2="-1.2205" y2="51.3386" gradientUnits="userSpaceOnUse">
<stop stop-color="#3D71CA"/>
<stop offset="1" stop-color="#80B1FF"/>
</linearGradient>
<linearGradient id="paint2_linear_431_151" x1="25.8818" y1="39.0624" x2="11.4832" y2="41.3376" gradientUnits="userSpaceOnUse">
<stop stop-color="#3D71CA"/>
<stop offset="1" stop-color="#80B1FF"/>
</linearGradient>
</defs>
</svg>
