<svg width="26" height="26" viewBox="0 0 26 26"
                                                                    fill="none" xmlns="http://www.w3.org/2000/svg">
                                                                    <rect width="26" height="26" fill="#1A1930" />
                                                                    <path
                                                                        d="M18.1031 11.8467C18.1204 9.82241 16.3963 7.96666 14.2598 7.71005C14.2173 7.70501 14.171 7.69734 14.122 7.68922C14.0163 7.6717 13.9069 7.65369 13.7965 7.65369C13.3587 7.65369 13.2416 7.96127 13.2108 8.14471C13.1808 8.32307 13.2094 8.47285 13.2956 8.59008C13.4406 8.78725 13.6958 8.82226 13.9007 8.8503C13.9608 8.8586 14.0174 8.86631 14.0649 8.87697C15.9844 9.30588 16.6307 9.98021 16.9466 11.8834C16.9543 11.9299 16.9578 11.9872 16.9615 12.048C16.9753 12.2755 17.004 12.7488 17.5128 12.7488H17.5129C17.5552 12.7488 17.6008 12.7452 17.6482 12.7379C18.122 12.6659 18.1072 12.2333 18.1 12.0254C18.098 11.9668 18.0961 11.9115 18.1011 11.8746C18.1024 11.8653 18.1031 11.856 18.1031 11.8467Z"
                                                                        fill="#E3EEFF" />
                                                                    <path
                                                                        d="M13.6723 6.96696C13.7292 6.97106 13.783 6.97499 13.8278 6.98185C16.9798 7.46659 18.4294 8.96 18.8311 12.1367C18.8379 12.1907 18.839 12.2565 18.8401 12.3263C18.8441 12.5745 18.8524 13.0908 19.4069 13.1015L19.4241 13.1017C19.598 13.1017 19.7363 13.0492 19.8352 12.9457C20.0078 12.7651 19.9958 12.4969 19.9861 12.2814C19.9837 12.2285 19.9814 12.1787 19.982 12.1351C20.0221 8.88616 17.2098 5.94005 13.9638 5.8305C13.9503 5.83005 13.9375 5.83076 13.9245 5.83259C13.9181 5.83353 13.9063 5.83469 13.8861 5.83469C13.8537 5.83469 13.8139 5.83188 13.7717 5.82902C13.7206 5.82555 13.6627 5.82153 13.6041 5.82153C13.0871 5.82153 12.9888 6.18895 12.9763 6.40798C12.9473 6.91417 13.437 6.94979 13.6723 6.96696Z"
                                                                        fill="url(#paint0_linear_431_106)" />
                                                                    <path
                                                                        d="M18.679 16.2419C18.612 16.1907 18.5427 16.1377 18.4778 16.0855C18.1337 15.8085 17.7675 15.5532 17.4135 15.3063C17.34 15.2552 17.2665 15.2039 17.1933 15.1526C16.7397 14.834 16.3319 14.6791 15.9467 14.6791C15.4278 14.6791 14.9754 14.9659 14.602 15.5312C14.4365 15.7819 14.2358 15.9037 13.9885 15.9037C13.8422 15.9037 13.6761 15.862 13.4946 15.7796C12.0306 15.1157 10.9852 14.0978 10.3874 12.7542C10.0984 12.1048 10.1921 11.6803 10.7007 11.3348C10.9895 11.1388 11.527 10.7739 11.489 10.075C11.4458 9.28148 9.69488 6.89373 8.95714 6.62253C8.64479 6.50767 8.31661 6.5066 7.97995 6.61986C7.13185 6.90497 6.52324 7.40567 6.21976 8.06774C5.92649 8.70747 5.93973 9.45864 6.25806 10.24C7.17831 12.4992 8.47213 14.4689 10.1037 16.0944C11.7008 17.6855 13.6637 18.9889 15.9378 19.9681C16.1428 20.0563 16.3578 20.1045 16.5148 20.1395C16.5683 20.1516 16.6145 20.1618 16.6482 20.1711C16.6667 20.1761 16.6858 20.1788 16.7049 20.179L16.7229 20.1791C16.7229 20.1791 16.7229 20.1791 16.723 20.1791C17.7926 20.1791 19.0769 19.2017 19.4714 18.0874C19.8169 17.1117 19.186 16.6294 18.679 16.2419Z"
                                                                        fill="#E3EEFF" />
                                                                    <path
                                                                        d="M14.1454 9.548C13.9623 9.55263 13.5812 9.56209 13.4474 9.95024C13.3849 10.1316 13.3924 10.2891 13.4697 10.4183C13.5833 10.6079 13.8008 10.666 13.9986 10.6979C14.7161 10.8131 15.0846 11.2098 15.1583 11.9464C15.1926 12.2899 15.4238 12.5298 15.7208 12.5298C15.7428 12.5298 15.7652 12.5285 15.7876 12.5258C16.1447 12.4833 16.3179 12.2209 16.3022 11.7459C16.3079 11.2502 16.0485 10.6874 15.6073 10.2391C15.1646 9.7895 14.6309 9.53627 14.1454 9.548Z"
                                                                        fill="url(#paint1_linear_431_106)" />
                                                                    <defs>
                                                                        <linearGradient id="paint0_linear_431_106"
                                                                            x1="12.975" y1="13.1017" x2="20.7286"
                                                                            y2="12.2058" gradientUnits="userSpaceOnUse">
                                                                            <stop stop-color="#3D71CA" />
                                                                            <stop offset="1" stop-color="#80B1FF" />
                                                                        </linearGradient>
                                                                        <linearGradient id="paint1_linear_431_106"
                                                                            x1="13.4055" y1="12.5298" x2="16.6072"
                                                                            y2="12.1568" gradientUnits="userSpaceOnUse">
                                                                            <stop stop-color="#3D71CA" />
                                                                            <stop offset="1" stop-color="#80B1FF" />
                                                                        </linearGradient>
                                                                    </defs>
                                                                </svg>