<svg width="26" height="26" viewBox="0 0 26 26"
                                                                    fill="none" xmlns="http://www.w3.org/2000/svg">
                                                                    <rect width="26" height="26" fill="#1A1930" />
                                                                    <rect x="7.53192" y="7.53198" width="10.9362"
                                                                        height="10.9362" rx="5.46808"
                                                                        fill="url(#paint0_linear_431_130)" />
                                                                    <path
                                                                        d="M18.8276 7.17262C17.271 5.61601 15.2014 4.75879 13.0001 4.75879C10.7988 4.75879 8.72917 5.61601 7.17263 7.17259C5.61601 8.72917 4.75879 10.7988 4.75879 13.0001C4.75879 15.2014 5.61601 17.271 7.17263 18.8276C8.72917 20.3842 10.7988 21.2414 13.0001 21.2414C15.2015 21.2414 17.271 20.3842 18.8276 18.8275C20.3842 17.271 21.2414 15.2014 21.2414 13.0001C21.2414 10.7987 20.3842 8.72917 18.8276 7.17262ZM7.85624 7.85624C8.58092 7.13155 9.43168 6.5788 10.359 6.21802C10.112 6.52636 9.88086 6.88077 9.66907 7.27938C9.42308 7.74231 9.21084 8.25072 9.03407 8.79378C8.4217 8.69215 7.8543 8.56718 7.3474 8.42051C7.50627 8.22523 7.67576 8.03671 7.85624 7.85624ZM6.7621 9.2524C7.355 9.44224 8.03304 9.60233 8.77289 9.72914C8.56686 10.6037 8.44559 11.5448 8.41665 12.5167H5.74182C5.8178 11.3503 6.16812 10.2371 6.7621 9.2524ZM6.70947 16.6584C6.14755 15.6959 5.81551 14.6148 5.74179 13.4835H8.41848C8.45009 14.4277 8.56895 15.342 8.76803 16.1936C8.01298 16.316 7.31791 16.4721 6.70947 16.6584ZM7.85624 18.144C7.65085 17.9385 7.45956 17.7229 7.28221 17.4983C7.80769 17.3526 8.39514 17.2292 9.0275 17.1303C9.20553 17.6809 9.42006 18.196 9.66904 18.6647C9.89986 19.099 10.1536 19.4807 10.4259 19.8077C9.47266 19.4476 8.59834 18.886 7.85624 18.144ZM12.5167 20.1506C11.7824 19.9449 11.0879 19.2744 10.5228 18.211C10.3252 17.8391 10.1516 17.4334 10.0029 17.001C10.799 16.9133 11.6462 16.8615 12.5167 16.8494V20.1506ZM12.5167 15.8825C11.5513 15.8957 10.6103 15.9563 9.72914 16.0598C9.53476 15.2563 9.4178 14.3865 9.38571 13.4835H12.5167V15.8825H12.5167ZM12.5167 12.5167H9.38387C9.4132 11.5885 9.53202 10.6944 9.73245 9.87043C10.608 9.97989 11.547 10.0465 12.5167 10.0655V12.5167ZM12.5167 9.09861C11.6428 9.081 10.7975 9.02402 10.007 8.93105C10.1548 8.50315 10.3271 8.10151 10.5228 7.733C11.0878 6.66961 11.7824 5.99911 12.5167 5.79343V9.09861ZM19.2686 9.30374C19.844 10.2757 20.1837 11.3705 20.2584 12.5167H17.5836C17.555 11.5559 17.4361 10.6254 17.2343 9.7595C17.979 9.63922 18.6655 9.48621 19.2686 9.30374ZM18.1439 7.85624C18.338 8.05032 18.5193 8.25378 18.6884 8.465C18.171 8.60629 17.5948 8.72621 16.9757 8.82272C16.7971 8.26875 16.5815 7.75055 16.3312 7.27938C16.1194 6.88077 15.8883 6.52636 15.6413 6.21802C16.5685 6.5788 17.4193 7.13155 18.1439 7.85624ZM13.4835 13.4835H16.6145C16.5822 14.3935 16.4637 15.2699 16.2665 16.0786C15.3911 15.9698 14.4525 15.9038 13.4835 15.8853V13.4835ZM13.4835 12.5167V10.0687C14.4494 10.0561 15.3911 9.99595 16.2732 9.89284C16.4704 10.7106 16.5873 11.5969 16.6163 12.5167H13.4835ZM13.4834 5.79343H13.4835C14.2177 5.99911 14.9123 6.66961 15.4774 7.733C15.6762 8.10731 15.8508 8.51586 16.0002 8.95143C15.203 9.03873 14.3549 9.09015 13.4834 9.1019V5.79343ZM13.4835 20.1506V16.8522C14.3566 16.8693 15.2012 16.9258 15.9914 17.0182C15.844 17.4441 15.6724 17.844 15.4774 18.211C14.9123 19.2744 14.2178 19.9449 13.4835 20.1506ZM18.1439 18.144C17.4019 18.886 16.5275 19.4476 15.5743 19.8076C15.8465 19.4807 16.1003 19.099 16.3311 18.6647C16.5764 18.203 16.7882 17.696 16.9647 17.1546C17.5913 17.2581 18.171 17.386 18.6875 17.5364C18.5187 17.7471 18.3377 17.9502 18.1439 18.144ZM19.265 16.7025C18.6651 16.5097 17.9773 16.3474 17.2264 16.2193C17.429 15.3604 17.5498 14.4371 17.5818 13.4835H20.2585C20.1835 14.6321 19.8426 15.729 19.265 16.7025Z"
                                                                        fill="#E3EEFF" />
                                                                    <defs>
                                                                        <linearGradient id="paint0_linear_431_130"
                                                                            x1="7.53192" y1="18.4681" x2="19.6057"
                                                                            y2="17.0205" gradientUnits="userSpaceOnUse">
                                                                            <stop stop-color="#3D71CA" />
                                                                            <stop offset="1" stop-color="#80B1FF" />
                                                                        </linearGradient>
                                                                    </defs>
                                                                </svg>
